<svg version="1.1" id="areaIcon" xmlns="http://www.w3.org/2000/svg" xmlns:xlink="http://www.w3.org/1999/xlink" x="0px" y="0px"
	 width="100%" viewBox="0 0 1536 864" enable-background="new 0 0 1536 864" xml:space="preserve">
<path fill="none" opacity="1.000000" stroke="#000000" stroke-linecap="round" stroke-linejoin="round" stroke-width="4.000000"
	d="
M768.000000,329.500000 
	C768.620483,336.157623 769.755127,342.755829 769.550476,349.501526 
	C769.297607,357.834442 770.803467,365.920929 772.801575,374.048798 
	C774.190063,379.696686 775.847778,385.368347 775.648438,391.504822 
	C775.183289,405.823059 775.473022,420.166748 775.514954,434.499969 
	C775.529175,439.357880 774.722534,444.324219 778.440552,448.552277 
	C780.627136,451.038788 778.819214,454.613464 780.000000,457.500000 
"/>
<path fill="none" opacity="1.000000" stroke="#000000" stroke-linecap="round" stroke-linejoin="round" stroke-width="4.000000"
	d="
M686.500000,258.000000 
	C676.454468,255.433701 666.008179,254.697830 656.670227,258.880096 
	C651.186279,261.336212 645.540039,265.398041 645.161499,273.985077 
	C644.721191,283.974609 644.114502,294.136597 641.650146,304.037384 
	C640.705261,307.833649 641.363098,311.999237 640.581482,316.015869 
	C638.787720,325.233612 640.089844,335.033173 634.664124,343.603912 
	C633.534302,345.388672 634.500000,348.500000 634.500000,351.000000 
"/>
<path fill="none" opacity="1.000000" stroke="#000000" stroke-linecap="round" stroke-linejoin="round" stroke-width="4.000000"
	d="
M844.500000,263.000000 
	C846.418701,260.373993 849.367310,259.100006 852.031067,257.553528 
	C857.216858,254.542847 860.570190,249.547165 864.208130,245.252747 
	C867.764160,241.054993 868.506348,234.699554 869.472351,228.995316 
	C869.664429,227.861176 869.485046,226.666443 869.502686,225.500046 
	C869.568726,221.138474 870.437195,215.954803 865.903259,213.694031 
	C861.343018,211.420197 856.034668,211.940750 850.993286,213.477921 
	C837.794189,217.502411 824.661743,221.995255 810.500000,220.500000 
"/>
<path fill="none" opacity="1.000000" stroke="#000000" stroke-linecap="round" stroke-linejoin="round" stroke-width="4.000000"
	d="
M611.500000,350.500000 
	C619.382751,349.671631 627.125366,352.136932 635.378357,351.331238 
	C636.034180,363.346405 639.028931,374.951172 638.652344,387.004761 
	C638.455322,393.311127 640.608887,399.700012 640.338257,405.993042 
	C639.778381,419.012817 639.997070,431.781555 643.281311,444.556244 
	C644.607605,449.715240 643.473389,455.500214 643.514954,460.999878 
	C643.528809,462.839233 643.156616,464.728180 644.000000,466.500000 
"/>
<path fill="none" opacity="1.000000" stroke="#000000" stroke-linecap="round" stroke-linejoin="round" stroke-width="4.000000"
	d="
M760.500000,268.500000 
	C760.071045,271.101654 760.939636,273.820587 761.730286,275.912964 
	C763.809998,281.416656 763.125854,286.953888 763.559448,292.495361 
	C764.175293,300.366150 764.943909,308.217285 766.329102,316.030304 
	C767.035339,320.013336 766.762085,324.178528 768.564697,328.379364 
	C760.918152,330.905792 753.209045,333.452881 745.500000,335.999969 
"/>
<path fill="none" opacity="1.000000" stroke="#000000" stroke-linecap="round" stroke-linejoin="round" stroke-width="4.000000"
	d="
M831.500000,267.500000 
	C840.325806,262.462830 849.408997,263.485596 858.488770,266.533386 
	C863.885559,268.344940 868.907227,271.126373 874.447021,272.687866 
	C875.807983,273.071472 877.170837,273.607483 878.493774,273.448242 
	C885.419312,272.614899 891.227234,276.252441 897.492249,278.027405 
	C899.209961,278.514008 900.833313,279.333344 902.500000,280.000000 
"/>
<path fill="none" opacity="1.000000" stroke="#000000" stroke-linecap="round" stroke-linejoin="round" stroke-width="4.000000"
	d="
M685.500000,347.000000 
	C680.607727,345.715088 675.615662,347.176361 672.161743,349.719666 
	C663.838196,355.848846 655.007507,355.443573 646.050232,353.290985 
	C642.587097,352.458710 639.316467,353.002167 636.000000,352.500000 
"/>
<path fill="none" opacity="1.000000" stroke="#000000" stroke-linecap="round" stroke-linejoin="round" stroke-width="4.000000"
	d="
M811.000000,321.500000 
	C805.000000,322.166656 798.788879,322.097260 793.068298,323.738159 
	C788.667664,325.000458 784.311890,324.140686 779.926758,325.195404 
	C776.289185,326.070312 772.451782,326.221069 769.000000,328.000000 
"/>
</svg>