<svg version="1.1" id="distanceIcon" xmlns="http://www.w3.org/2000/svg" xmlns:xlink="http://www.w3.org/1999/xlink" x="0px" y="0px"
	 width="100%" viewBox="0 0 1536 864" enable-background="new 0 0 1536 864" xml:space="preserve">
<path fill="none" opacity="1.000000" stroke="#000000" stroke-linecap="round" stroke-linejoin="round" stroke-width="3.000000"
	d="
M760.500000,184.000000 
	C752.750427,183.465088 745.625122,185.292999 738.438782,188.356339 
	C726.599426,193.403137 717.557007,201.735626 708.337463,210.325546 
	C701.302795,216.879791 694.184204,223.227875 688.555420,231.039948 
	C687.185425,232.941406 685.505066,234.117889 683.495300,234.989120 
	C675.729553,238.355392 670.516968,245.032074 664.090881,250.114868 
	C659.150818,254.022232 659.757263,263.016479 662.759949,268.628418 
	C664.968018,272.755157 668.599548,276.122925 669.561707,280.987793 
	C670.120422,283.812653 672.714783,285.546265 674.591248,287.408020 
	C681.481262,294.243896 685.455322,303.330841 692.489868,310.010681 
	C695.052795,312.444397 697.070923,315.925781 700.082642,317.321686 
	C708.225586,321.095795 713.670227,327.436523 718.441589,334.539246 
	C720.852234,338.127777 723.704834,340.361359 727.948303,341.667938 
	C731.937500,342.896271 734.970459,346.619141 739.499878,347.001099 
	C744.385376,347.413086 749.377502,348.831207 753.971069,345.953857 
	C755.199158,345.184662 756.364380,345.478210 757.497375,345.544586 
	C768.658752,346.198486 779.697571,345.301788 790.472656,342.398590 
	C794.309875,341.364777 798.322205,339.783325 801.385132,337.355133 
	C805.955200,333.732178 811.342102,333.021393 816.528320,331.603516 
	C819.450073,330.804657 822.157288,329.699677 824.452820,327.938507 
	C828.358765,324.941772 832.690613,322.726105 837.026245,320.552307 
	C843.237793,317.437897 848.293518,313.186920 851.473511,306.986420 
	C855.744019,298.659760 859.395020,290.108337 859.512146,280.500153 
	C859.520508,279.815857 859.240967,279.082031 859.989563,278.486877 
	C864.126465,275.198029 862.809082,270.451263 862.256653,266.534302 
	C861.757874,262.997314 861.297852,259.479980 861.573059,256.005798 
	C862.567993,243.445023 859.167603,232.082977 853.692261,220.905838 
	C851.496826,216.424240 847.349426,212.305267 848.496094,206.499237 
	C848.527771,206.338821 848.572815,206.098221 848.489685,206.009705 
	C841.436646,198.504227 838.393188,187.251419 828.422546,182.668564 
	C819.923157,178.761993 811.318726,174.372131 801.500488,174.531754 
	C800.017151,174.555862 798.803772,174.049759 797.488953,173.527756 
	C790.290833,170.669785 783.012207,171.515488 775.477966,172.283615 
	C767.173706,173.130234 759.084839,174.675476 751.002747,176.511993 
	C747.653015,177.273178 744.333313,178.166656 741.000000,178.999985 
"/>
<path fill="none" opacity="1.000000" stroke="#000000" stroke-linecap="round" stroke-linejoin="round" stroke-width="4.000000"
	d="
M769.500000,346.500000 
	C769.693665,353.670532 767.943176,360.574799 766.986206,367.566559 
	C765.792236,376.289490 764.685059,385.307770 766.148865,394.555573 
	C767.534729,403.310974 767.426697,412.616608 764.917297,421.476562 
	C764.724426,422.157593 764.485840,422.822083 764.516846,423.499237 
	C765.273193,440.058594 761.046082,456.411713 762.476624,473.002014 
	C762.680237,475.363464 762.419250,477.707428 763.458557,480.018646 
	C766.282166,486.297729 763.226929,492.666351 763.232666,499.000244 
	C763.233887,500.365936 762.544983,502.325836 762.539185,504.000122 
	C762.476440,522.166626 762.556946,540.333618 762.462891,558.499817 
	C762.436951,563.505371 760.966187,568.443176 761.503784,573.499573 
	C761.645752,574.835510 761.833313,576.166687 762.000000,577.500000 
"/>
<path fill="none" opacity="1.000000" stroke="#000000" stroke-linecap="round" stroke-linejoin="round" stroke-width="4.000000"
	d="
M813.500000,213.000000 
	C809.910583,211.289413 806.340820,212.922058 803.062134,213.746887 
	C800.966553,214.274063 798.944336,216.641129 799.406433,220.012817 
	C800.068970,224.846970 797.614441,231.159576 803.100220,233.791061 
	C810.994995,237.578156 818.137939,244.024261 828.007507,242.550217 
	C831.651855,242.005920 838.621460,237.144089 839.499939,233.999985 
	C840.605164,230.044388 835.608643,224.526093 830.515747,223.426956 
	C825.847595,222.419510 821.186462,222.556427 816.500000,222.500000 
"/>
</svg>