<svg version="1.1" id="footTrafficIcon" xmlns="http://www.w3.org/2000/svg" xmlns:xlink="http://www.w3.org/1999/xlink" x="0px" y="0px"
	 width="100%" viewBox="0 0 1536 864" enable-background="new 0 0 1536 864" xml:space="preserve">
<path fill="none" opacity="1.000000" stroke="#000000" stroke-linecap="round" stroke-linejoin="round" stroke-width="4.000000"
	d="
M806.500000,148.000000 
	C800.893372,146.105499 796.107971,149.208832 790.991455,150.465332 
	C777.144592,153.865814 763.437683,157.721924 750.007812,162.521820 
	C748.118042,163.197235 745.992981,163.787903 744.564331,165.071594 
	C740.418213,168.797104 735.607300,171.484497 731.002930,174.504425 
	C723.781738,179.240616 718.190674,185.298843 714.935303,193.474228 
	C713.465820,197.164673 711.099670,200.374786 708.658386,203.619171 
	C704.404114,209.273056 700.965271,215.408981 700.293091,222.981628 
	C699.850098,227.971375 699.342957,233.102859 697.657410,238.053604 
	C696.448181,241.605530 696.228088,245.580063 696.438416,249.503296 
	C696.696777,254.322784 697.061462,259.245758 696.393738,263.985016 
	C694.463257,277.686523 700.526367,288.592285 708.124023,298.908661 
	C709.732239,301.092377 711.123413,303.465332 712.853333,305.617859 
	C720.690125,315.369019 732.118591,316.820770 743.012878,319.446594 
	C755.678955,322.499420 768.660339,321.869202 781.494202,321.354675 
	C794.281860,320.841919 806.821472,316.989349 817.263977,310.140106 
	C828.215332,302.957153 839.689026,298.135315 851.986633,294.455353 
	C862.084717,291.433594 871.456360,279.682190 873.694031,269.542816 
	C874.768799,264.672607 873.268555,259.594971 875.520020,255.009842 
	C877.344727,251.293716 879.315430,247.742096 880.095520,243.517639 
	C881.477173,236.036209 883.377014,228.772263 881.697327,220.957596 
	C881.017822,217.796387 880.167542,214.214081 880.638062,211.020340 
	C882.171265,200.612396 875.046875,193.017349 872.117432,184.126053 
	C871.380249,181.888580 867.647461,178.883896 864.466980,177.580627 
	C857.943787,174.907608 853.319702,169.543213 847.432922,166.115204 
	C839.914062,161.736786 832.677307,156.205490 822.988708,157.408844 
	C819.632874,157.825638 816.399231,158.149521 813.499878,159.999847 
	C809.223999,162.728699 804.629211,164.183609 799.500000,163.500000 
"/>
<path fill="none" opacity="1.000000" stroke="#000000" stroke-linecap="round" stroke-linejoin="round" stroke-width="4.000000"
	d="
M786.000000,477.500000 
	C785.156616,479.271820 785.515503,481.161316 785.514038,483.000000 
	C785.493347,508.500000 785.528381,534.000061 785.448792,559.499817 
	C785.442078,561.658447 785.950439,563.816162 784.642883,566.082458 
	C783.616211,567.861877 784.864380,570.018982 786.708008,571.684143 
	C791.473511,568.129333 794.938293,572.189880 797.843140,574.682800 
	C801.446350,577.774963 805.748352,580.682800 807.431946,585.523682 
	C808.110413,587.474426 809.769531,587.626038 811.019653,587.914917 
	C822.823120,590.642883 833.031799,596.885193 843.476379,602.543579 
	C856.520081,609.609924 870.359680,614.846130 884.064209,620.339905 
	C889.211304,622.403259 891.928406,625.761353 893.452942,630.515076 
	C895.111206,635.685974 899.645081,638.840393 902.021179,643.489197 
	C906.016174,651.305481 904.347595,659.415771 903.500000,667.500000 
	C896.546814,672.143677 896.163208,680.431763 893.854248,687.122253 
	C889.530640,699.650635 886.510925,712.710632 881.281006,724.906128 
	C878.703918,730.915649 876.410522,737.341919 872.000000,742.500000 
"/>
<path fill="none" opacity="1.000000" stroke="#000000" stroke-linecap="round" stroke-linejoin="round" stroke-width="3.000000"
	d="
M777.000000,559.000000 
	C768.057800,563.634399 760.317017,570.460938 750.506531,573.520874 
	C749.956116,573.692566 749.452148,574.112671 749.006958,574.507874 
	C736.280396,585.804443 723.672363,597.281921 713.571045,611.052124 
	C702.179504,626.581055 692.103149,642.965210 683.987427,660.494141 
	C680.342102,668.367432 674.950989,674.264954 667.165527,678.785095 
	C661.327271,682.174622 657.038940,688.207947 651.980164,692.979004 
	C650.060791,694.789246 648.636841,697.401367 645.362732,697.555542 
	C643.718994,695.373474 644.839233,692.832520 644.500000,690.500000 
"/>
<path fill="none" opacity="1.000000" stroke="#000000" stroke-linecap="round" stroke-linejoin="round" stroke-width="3.000000"
	d="
M1007.500000,379.500000 
	C999.931580,378.988373 993.621704,383.003540 987.095032,385.727722 
	C983.900146,387.061279 980.623108,388.131927 977.489197,388.322937 
	C967.687073,388.920380 958.489258,392.145020 948.975891,393.866943 
	C935.655640,396.277893 923.527771,402.296906 910.511169,405.544861 
	C902.118225,407.639069 893.807556,410.079620 885.510498,412.535400 
	C881.117981,413.835510 876.739685,415.278595 872.525574,417.060486 
	C868.061584,418.948059 868.664368,424.093933 866.660828,427.947784 
	C863.276978,426.644409 861.163574,425.163422 859.735046,421.606384 
	C858.571106,418.707886 855.963684,416.000366 853.042725,413.939484 
	C848.587402,410.796082 844.665527,406.936340 841.570190,402.451569 
	C839.331360,399.207886 835.961426,397.292236 832.904663,395.680786 
	C817.612915,387.619171 802.000977,380.164673 786.491821,372.516571 
	C786.223755,372.384338 785.833313,372.500000 785.500000,372.500000 
"/>
<path fill="none" opacity="1.000000" stroke="#000000" stroke-linecap="round" stroke-linejoin="round" stroke-width="4.000000"
	d="
M690.500000,459.000000 
	C694.651123,454.724335 699.698242,456.521912 704.497620,457.022980 
	C715.930359,458.216614 726.761963,462.131256 738.470886,462.928162 
	C755.193481,464.066284 771.379822,468.414581 786.670288,476.685150 
	C800.473938,484.151489 814.936707,490.717377 830.457031,494.668701 
	C844.327942,498.200012 858.091125,502.515350 871.389221,507.779816 
	C877.859192,510.341156 885.057739,509.755157 890.972961,513.542175 
	C892.537537,514.543823 894.782166,515.051147 895.000000,517.500000 
"/>
<path fill="none" opacity="1.000000" stroke="#000000" stroke-linecap="round" stroke-linejoin="round" stroke-width="4.000000"
	d="
M780.500000,326.500000 
	C780.000244,331.172791 781.485046,335.577515 782.556091,339.986389 
	C784.889771,349.592926 784.884521,359.247223 784.064392,369.005402 
	C783.815247,371.970459 784.467285,374.999542 784.477356,378.000061 
	C784.527100,392.833252 784.562317,407.667023 784.473206,422.499847 
	C784.430054,429.672028 786.302429,436.527344 787.312378,443.527069 
	C788.207458,449.731262 787.963745,456.221588 787.223938,462.467285 
	C786.995117,464.399109 786.608704,466.508453 786.578735,468.501190 
	C786.543518,470.847565 786.263794,473.009583 785.000000,475.000000 
"/>
<path fill="none" opacity="1.000000" stroke="#000000" stroke-linecap="round" stroke-linejoin="round" stroke-width="3.000000"
	d="
M777.500000,413.000000 
	C768.667297,418.070831 758.502258,418.674622 748.995605,421.485138 
	C740.628784,423.958679 732.274841,426.579559 725.045959,431.566650 
	C718.001160,436.426758 711.269287,441.751617 704.527222,447.034760 
	C701.187500,449.651794 696.615784,451.115784 695.500000,456.000000 
"/>
<path fill="none" opacity="1.000000" stroke="#000000" stroke-linecap="round" stroke-linejoin="round" stroke-width="3.000000"
	d="
M867.500000,728.500000 
	C868.833313,733.833313 870.166687,739.166687 871.500000,744.500000 
"/>
</svg>