<svg version="1.1" id="ratingIcon" xmlns="http://www.w3.org/2000/svg" xmlns:xlink="http://www.w3.org/1999/xlink" x="0px" y="0px"
	 width="100%" viewBox="0 0 1536 864" enable-background="new 0 0 1536 864" xml:space="preserve">
<path fill="none" opacity="1.000000" stroke="#000000" stroke-linecap="round" stroke-linejoin="round" stroke-width="3.000000"
	d="
M450.500000,349.500000 
	C451.000000,349.500000 451.731384,349.282379 451.966064,349.531891 
	C457.513092,355.429749 465.934326,356.685242 471.881622,361.642029 
	C477.274811,366.136963 481.254211,372.316406 486.601044,376.881653 
	C493.806732,383.033997 498.086212,390.965363 502.629822,398.925903 
	C503.951508,401.241516 507.259705,402.345734 508.924164,404.557068 
	C515.213135,412.912445 523.530762,418.288269 533.528687,420.361603 
	C545.170471,422.775787 555.418640,427.645508 565.051270,434.427185 
	C571.472046,438.947571 579.048828,441.282684 586.530029,443.393616 
	C591.895508,444.907593 597.023132,446.652863 601.491699,450.011047 
	C605.351013,452.911407 609.531982,455.187286 613.969238,457.072449 
	C614.690979,457.379059 615.573059,457.145691 615.961487,457.538116 
	C621.630188,463.264343 629.623840,465.763519 635.343811,471.165375 
	C638.918579,474.541199 641.395081,479.081757 645.981567,481.534454 
	C647.148315,482.158386 646.364136,483.501373 646.471375,484.503082 
	C646.594788,485.656494 646.045776,487.119659 646.572021,487.954590 
	C650.686462,494.482086 650.571411,501.746368 650.478210,508.999725 
	C650.404785,514.713318 652.060120,519.787842 654.225281,525.111694 
	C656.461060,530.609192 656.668091,536.978760 657.430786,543.008789 
	C657.825012,546.125549 657.606140,549.337524 657.481323,552.499268 
	C656.982605,565.133118 658.590515,577.469116 662.498474,589.500488 
	C664.560852,595.849976 667.451782,602.026062 666.525085,609.003357 
	C666.437683,609.661499 666.390015,610.323059 666.967712,611.026550 
	C673.897583,619.466064 675.906433,629.492371 675.372009,639.993469 
	C675.088013,645.572754 678.094116,650.454224 677.648560,656.011902 
	C677.497803,657.892273 679.520935,658.748596 681.497375,657.495850 
	C682.512207,656.852600 683.791992,656.378357 684.453430,655.466248 
	C689.384033,648.666748 697.212585,645.277588 703.033142,639.533569 
	C704.238342,638.344177 704.777710,636.890808 705.472900,635.486572 
	C706.101440,634.216858 706.137573,632.451233 707.066528,631.570129 
	C710.117310,628.676331 711.861877,624.971313 714.192932,621.634827 
	C719.823914,613.575195 723.668579,604.681824 727.987671,595.993835 
	C732.092590,587.736694 739.034729,582.279724 746.563477,577.602173 
	C750.125793,575.388916 753.165405,572.899536 755.491943,569.494507 
	C759.381165,563.802673 764.123962,558.667175 766.565979,552.024231 
	C767.116882,550.525818 768.218445,548.844727 769.545959,548.079773 
	C777.809753,543.317932 779.779602,534.208313 784.560608,527.040405 
	C788.012756,521.864685 787.384644,514.816833 792.492126,510.490723 
	C793.094238,509.980743 793.528198,509.223083 795.638611,509.882019 
	C797.003906,512.803772 800.804871,514.834106 802.641907,518.936462 
	C804.173279,522.356018 808.257202,523.704712 810.703186,526.841553 
	C815.117126,532.502136 816.028503,539.250549 818.486877,545.505127 
	C820.391357,550.350342 820.766235,556.039429 827.469727,557.627747 
	C831.066650,558.480042 831.538452,562.821045 832.808472,565.587952 
	C837.358643,575.500916 845.655518,581.587158 853.335876,588.677795 
	C868.103882,602.311890 887.069275,608.003967 904.013123,617.476562 
	C908.760315,620.130493 913.635742,622.562378 918.508911,624.982056 
	C923.214233,627.318481 928.161255,628.615784 933.500549,628.535889 
	C942.331848,628.403748 951.166687,628.497498 960.000000,628.500793 
	C967.416809,628.503479 974.376404,629.421387 980.599426,634.375122 
	C985.257629,638.083313 990.927246,638.997375 996.617126,635.863647 
	C994.166687,628.177795 993.233704,620.647461 992.266052,613.029724 
	C991.359253,605.890869 988.656372,598.950684 986.466858,592.010437 
	C982.135681,578.281921 974.399414,565.996887 969.500000,552.500000 
	C960.022217,543.329712 959.503784,530.592468 956.699646,518.951904 
	C954.572876,510.123291 951.356079,501.803986 947.881653,493.549805 
	C946.423218,490.084808 945.369568,486.596161 944.507324,482.998230 
	C943.289246,477.915558 941.496094,473.181732 936.048340,470.243225 
	C940.172363,466.647736 943.956787,463.998260 946.173279,459.587067 
	C947.696655,456.555450 949.443665,453.412262 950.766724,450.397614 
	C955.200745,440.294708 963.011108,433.419556 970.955994,426.449799 
	C973.242920,424.443542 975.295105,422.023834 976.946655,419.465576 
	C982.762207,410.457184 992.319336,405.961792 1000.641907,400.205170 
	C1008.730286,394.610504 1014.055908,387.619904 1018.749512,379.138062 
	C1024.066895,369.529114 1030.347412,360.369354 1036.696655,351.287964 
	C1043.560913,341.470123 1050.906006,332.228912 1059.049805,323.546722 
	C1060.214478,322.305023 1060.488037,320.910675 1061.091187,319.255280 
	C1054.821045,317.522034 1048.346802,316.947968 1041.993896,316.617615 
	C1010.351685,314.972046 978.669739,315.536774 947.000000,315.502228 
	C934.500000,315.488586 921.899536,314.489960 909.522034,315.721313 
	C887.347168,317.927307 865.179932,317.275970 842.999878,317.489990 
	C841.867249,317.500946 840.950073,318.074677 839.962646,318.378815 
	C832.601257,320.646240 827.848511,318.897156 823.003540,312.497314 
	C812.704041,298.892242 803.753540,284.547760 796.284302,269.104309 
	C790.339478,256.812561 781.334106,246.218201 773.481506,235.012985 
	C762.867126,219.867035 752.531311,204.542908 742.395935,189.068176 
	C734.710327,177.333755 729.499512,164.622467 725.000000,151.500000 
"/>
<path fill="none" opacity="1.000000" stroke="#000000" stroke-linecap="round" stroke-linejoin="round" stroke-width="4.000000"
	d="
M720.500000,153.000000 
	C714.194275,151.814545 712.035034,153.295059 713.766724,160.435303 
	C715.717957,168.480545 712.127930,173.780579 708.045715,179.532440 
	C705.669800,182.880127 703.500122,186.430649 701.263184,189.844818 
	C698.489197,194.078476 697.218567,198.164520 697.497070,203.000168 
	C698.176941,214.804321 695.343018,226.148331 691.210266,236.888504 
	C688.840088,243.048157 687.667847,249.333206 686.759155,255.537949 
	C685.449280,264.481445 682.607849,272.638428 678.487488,280.493439 
	C672.686768,291.551666 670.645508,303.883240 666.498474,315.499451 
	C665.842529,317.336609 665.512756,319.405396 664.440979,320.959259 
	C659.406006,328.258850 659.650391,336.786560 658.487732,344.998260 
	C658.345947,346.000153 659.014343,347.141266 658.112549,347.929352 
	C652.436157,349.665619 646.718628,349.513336 641.000000,349.511566 
	C580.666687,349.492859 520.333313,349.493835 460.000000,349.526794 
	C457.979706,349.527893 455.782867,348.863800 454.000000,350.500000 
"/>
</svg>